<?xml version="1.0" encoding="UTF-8" standalone="no"?>
<!DOCTYPE svg PUBLIC "-//W3C//DTD SVG 1.1//EN" "http://www.w3.org/Graphics/SVG/1.1/DTD/svg11.dtd">
<svg version="1.1" xmlns="http://www.w3.org/2000/svg" xmlns:xlink="http://www.w3.org/1999/xlink" preserveAspectRatio="xMidYMid meet" viewBox="0 0 640 640" width="512" height="512"><defs><path d="M320.21 619.93C323.11 617.52 321.93 615.44 312.42 606.2C292.11 586.47 289.7 584.73 286.74 587.69C284.69 589.73 284.04 589.52 284.04 586.82C284.04 580.79 273.37 572.44 267.88 574.18C264.1 575.38 263.33 574.91 264.42 572.07C265.19 570.05 266.58 568.4 267.5 568.4C268.42 568.4 273.57 563 278.94 556.39C284.32 549.79 288.75 545.31 288.79 546.45C288.82 547.59 289.95 546.65 291.28 544.36C292.61 542.07 299.31 537.04 306.16 533.17C316.4 527.39 318.81 524.8 319.74 518.62C321.28 508.42 317.98 500.58 312.16 500.58C306.55 500.58 306.64 501.16 310.48 489.77C315.22 475.69 314.43 473.59 304.73 474.34C304.16 474.38 301.35 474.6 296.28 474.99C295.3 467.15 294.76 462.8 294.65 461.93C293.25 450.74 292.15 448.54 286.95 446.56C283.62 445.29 279.66 444.73 278.16 445.3C276.66 445.88 272.03 445.65 267.87 444.8C267.37 444.7 264.85 444.19 260.32 443.26C259.84 430.85 259.57 423.96 259.52 422.58C258.96 407.95 259.75 399.44 262.23 393.51C266.63 382.97 264.77 372.96 257.07 365.82C252.58 361.67 251.52 358.94 252.65 354.45C254.15 348.6 253.98 348.53 239.88 348.53C225.75 348.53 225.59 348.46 225.59 341.91C225.59 338.27 224.91 334.6 224.07 333.77C223.24 332.94 222.45 327.42 222.31 321.49C222.03 308.91 217.28 304.09 205.19 304.09C200.4 304.09 196.86 302.73 196.03 300.58C195.29 298.65 192.93 297.07 190.78 297.07C188.63 297.07 184.53 295.44 181.67 293.43C178.81 291.43 176.47 290.59 176.47 291.56C176.47 292.54 175.21 292.07 173.67 290.52C172.12 288.98 168.06 287.72 164.64 287.72C160.62 287.72 155.61 284.84 150.49 279.6C143.5 272.44 142.56 270.01 142.56 259.13C142.56 252.34 141.77 246.52 140.8 246.2C134.01 243.94 123.86 246.71 113.55 253.64C106.99 258.06 101.62 261.05 101.62 260.3C101.62 259.54 99.52 260.82 96.96 263.14C93.41 266.35 88.27 267.39 75.33 267.49C74.19 267.5 68.53 267.55 58.35 267.63C58.54 260.32 58.65 256.26 58.67 255.45C58.85 248.75 58.66 243.27 58.25 243.27C57.85 243.27 55.81 244.98 53.73 247.05C51.66 249.13 46.2 251.68 41.6 252.71C34.45 254.33 33.08 253.96 32.08 250.11C31.26 247 28.85 245.62 24.22 245.62C19.68 245.62 17.92 244.64 18.72 242.55C19.37 240.87 17.63 236.92 14.87 233.78C12.11 230.64 8.38 225.88 6.59 223.19C2.23 216.66 4.78 204.12 10.86 202.19C14.31 201.09 15.12 199.37 14.08 195.25C13.32 192.23 13.76 189.11 15.05 188.31C16.34 187.52 17.41 184.56 17.43 181.74C17.46 175.54 30.7 166.29 42.21 164.42C46.58 163.71 50.15 162.1 50.15 160.84C50.15 159.51 53.4 159.16 57.89 160C58.41 160.1 60.99 160.58 65.64 161.45C67.96 145.98 69.26 137.38 69.51 135.66C73.54 108.89 72.54 99.52 65.39 96.77C63.42 96.05 61.83 92.94 61.83 89.92C61.83 83.75 68.87 78.82 74.55 81C77.26 82.04 77.87 81.4 76.81 78.65C76.02 76.59 73.49 74.89 71.2 74.89C66.8 74.89 63.24 68.94 65.48 65.32C66.2 64.15 72.52 63.19 79.51 63.19C88.12 63.19 92.25 62.24 92.28 60.27C92.3 58.3 93.08 58.5 94.66 60.85C96.69 63.88 97.5 63.72 100.62 59.68C104.18 55.06 104.27 55.06 107.59 59.54C109.44 62.04 110.99 65.2 111.03 66.56C111.07 67.92 113.86 71.05 117.23 73.51C122.35 77.24 124.49 77.55 130.22 75.39C135.95 73.23 136.87 73.36 135.79 76.18C133.89 81.14 137.45 80.31 141.36 74.89C143.22 72.31 146 70.21 147.55 70.21C149.09 70.21 153.33 67.25 156.97 63.64C160.61 60.03 165.42 56.38 167.68 55.53C172.97 53.53 172.97 49.16 167.68 49.14C163.66 49.12 157.74 39.67 157.74 33.28C157.74 31.49 155.37 28.11 152.48 25.77C152.13 25.49 150.38 24.07 147.23 21.52C151.08 22.25 153.22 22.66 153.65 22.74C157.16 23.42 160.06 24.67 160.06 25.53C160.06 26.39 162.95 26.93 166.49 26.73C170.03 26.54 174.81 28.02 177.12 30.03C180.98 33.4 181.42 33.28 182.65 28.56C183.54 25.11 185.81 23.43 189.48 23.43C197.15 23.43 211.72 16.33 217.69 9.69C223.24 3.52 228.99 4.92 227.14 12C226.46 14.64 227.21 16.41 229.01 16.41C233.79 16.41 234.83 25.21 230.97 32.94C226.09 42.73 230.58 58.04 240.38 65C246.78 69.54 247.96 69.69 253.44 66.61C265.36 59.92 273.69 57.73 284.85 58.35C295.61 58.95 296.11 58.71 294.55 53.79C293.34 49.98 293.74 48.89 296.07 49.69C297.81 50.29 302.13 49.96 305.67 48.96C309.21 47.96 312.1 48.02 312.1 49.09C312.1 52.13 325.11 55.91 328.45 53.85C330.1 52.83 334.52 52.88 338.27 53.96C346.33 56.27 348.34 54.5 360.5 34.45C367.16 23.47 369.33 21.42 371.99 23.62C373.79 25.12 375.34 28.58 375.44 31.32C375.69 38.06 383.02 58.47 385.2 58.5C386.16 58.51 386.69 59.18 386.37 60C386.05 60.82 388.15 62.36 391.05 63.43C396.49 65.45 398.1 71.17 393.93 73.74C392.63 74.55 392.16 76.19 392.9 77.39C393.64 78.59 392.34 79.64 390.02 79.73C386.24 79.88 386.29 80.11 390.46 81.91C393.04 83.01 393.82 83.99 392.22 84.08C390.61 84.17 389.29 85.2 389.29 86.36C389.29 87.53 391.66 87.91 394.56 87.22C398.19 86.34 399.09 86.71 397.48 88.41C396.19 89.76 393.04 91.35 390.46 91.94C387.89 92.52 389.99 92.6 395.14 92.1C400.34 91.6 403.23 92.03 401.65 93.07C399.94 94.2 402.64 95.1 408.36 95.33C413.61 95.54 418.36 96.16 418.91 96.7C419.45 97.25 418.2 101.93 416.13 107.1C412.58 115.98 411.62 116.65 399.08 118.98C389.04 120.85 388.22 121.25 395.73 120.61C402.25 120.06 405.15 120.62 404.15 122.23C403.32 123.58 406.06 122.69 410.25 120.25C414.43 117.82 418.77 113.45 419.89 110.56C421.01 107.66 423.79 105.14 426.08 104.95C437.38 103.99 443.81 105.22 448.16 109.16C450.79 111.54 453.09 112.98 453.28 112.37C454.13 109.58 468.84 117.99 469.01 121.37C469.12 123.79 469.62 124.11 470.37 122.25C472.37 117.3 476.97 119 481.28 126.28C485.12 132.78 485.13 133.63 481.51 139.15C477.26 145.64 479.45 147.42 484 141.18C487.98 135.75 501.24 135.63 510.76 140.93C515.51 143.58 525.54 145.92 535.32 146.68C555.73 148.24 564.6 153.11 587.68 175.35C601.71 188.88 606.15 191.84 612.38 191.84C623.77 191.84 627.93 196.3 631.22 212.08C636.71 238.42 632.33 252.58 613 270.86C605.9 277.57 598.96 283.07 597.58 283.07C596.2 283.07 591.52 288.59 587.17 295.35C582.83 302.1 576.52 310.18 573.17 313.3C567.53 318.53 567.06 318.62 566.97 314.47C566.9 310.98 566 311.55 563 316.98C558.95 324.32 558.11 328.93 556.66 352.07C556.18 359.79 554.11 370.71 552.07 376.34C550.02 381.97 548.35 388.02 548.35 389.79C548.35 391.56 546.24 395.11 543.67 397.68C540.77 400.58 538.99 405.48 538.99 410.57C538.99 415.89 537.34 420.19 534.32 422.79C531.74 424.99 529.64 427.75 529.64 428.91C529.64 430.08 525.95 435.11 521.45 440.09C516.95 445.08 513.26 451.57 513.26 454.51C513.26 458.54 511.37 460.43 505.66 462.11C501.47 463.34 498.05 465.92 498.05 467.85C498.04 470.52 494.96 471.41 485.18 471.57C478.11 471.68 471.11 470.84 469.61 469.7C468 468.47 466.31 468.58 465.45 469.98C464.65 471.27 462.27 471.67 460.18 470.86C457.83 469.96 456.94 470.34 457.87 471.85C458.75 473.27 456.46 474.89 452.46 475.69C447.47 476.69 445.91 478.08 446.9 480.65C448.49 484.82 445.2 485.4 441.42 481.63C439.91 480.11 437.51 479.84 435.69 480.97C433.97 482.05 431.48 483.09 430.16 483.29C426.54 483.85 410.02 495.04 402.74 501.87C396.56 507.68 395.36 510.26 396.09 516.21C396.28 517.73 395.46 519.56 394.28 520.3C393.04 521.06 392.91 525.15 393.98 529.89C396.29 540.14 391.43 551.03 380.42 560.24C376.18 563.78 370.51 571.02 367.82 576.33C361.76 588.27 355.61 596.26 348.86 600.96C344.77 603.81 345.2 602.61 350.89 595.27C360.55 582.82 361.97 580.13 358.91 580.13C356.09 580.13 347.03 589.26 339.78 599.41C335.52 605.37 335.5 605.72 339.44 604.28C343.49 602.8 343.49 602.95 339.37 607.64C337 610.34 333.32 615.96 331.18 620.12C329.05 624.28 324.94 629.22 322.04 631.09C317.08 634.31 316.78 634.17 316.78 628.65C316.78 625.41 318.32 621.5 320.21 619.93ZM356.1 112.33C351.76 112.36 351.39 112.81 354.21 114.63C358.56 117.45 358.32 117.45 360.06 114.63C360.86 113.33 359.11 112.31 356.1 112.33ZM371.9 106.93C370.63 110.26 370.9 110.53 373.21 108.24C374.81 106.65 375.53 104.77 374.81 104.05C374.09 103.32 372.78 104.62 371.9 106.93ZM379.93 94.76C375.48 97.51 377.61 93.15 382.86 88.78C385.75 86.36 386.88 84.35 385.36 84.31C382.45 84.23 372.91 95.15 372.91 98.58C372.91 99.69 375.02 100.6 377.59 100.6C380.27 100.6 382.27 99.05 382.27 96.96C382.27 94.95 381.22 93.96 379.93 94.76Z" id="dqvRAe80O"></path></defs><g><g><g><use xlink:href="#dqvRAe80O" opacity="1" fill="#f2b705" fill-opacity="1"></use><g><use xlink:href="#dqvRAe80O" opacity="1" fill-opacity="0" stroke="#f2b705" stroke-width="0" stroke-opacity="0"></use></g></g></g></g></svg>