<?xml version="1.0" encoding="UTF-8"?>
<svg width="356px" height="216px" viewBox="0 0 356 216" version="1.1" xmlns="http://www.w3.org/2000/svg" xmlns:xlink="http://www.w3.org/1999/xlink">
    <!-- Generator: Sketch 61.2 (89653) - https://sketch.com -->
    <title>Group 58</title>
    <desc>Created with Sketch.</desc>
    <g id="Page-1" stroke="none" stroke-width="1" fill="none" fill-rule="evenodd">
        <g id="Artboard-1" transform="translate(-787.000000, -251.000000)">
            <g id="Group-58" transform="translate(787.000000, 251.000000)">
                <path d="M177.9648,103.9932 C176.9538,103.9932 176.0038,104.3872 175.2888,105.1012 C174.5728,105.8172 174.1798,106.7672 174.1798,107.7792 C174.1798,108.7892 174.5728,109.7402 175.2878,110.4542 C176.0038,111.1702 176.9538,111.5642 177.9648,111.5642 C178.9768,111.5642 179.9268,111.1702 180.6418,110.4552 L180.6428,110.4542 C181.3578,109.7402 181.7508,108.7892 181.7508,107.7792 C181.7508,106.7672 181.3578,105.8172 180.6418,105.1022 C179.9268,104.3872 178.9768,103.9932 177.9648,103.9932 M177.9648,119.1342 C174.9318,119.1342 172.0798,117.9532 169.9358,115.8082 C167.7908,113.6632 166.6098,110.8122 166.6098,107.7792 C166.6098,104.7452 167.7908,101.8932 169.9358,99.7482 C172.0798,97.6032 174.9318,96.4222 177.9648,96.4222 C180.9978,96.4222 183.8508,97.6032 185.9948,99.7482 C188.1398,101.8932 189.3208,104.7452 189.3208,107.7792 C189.3208,110.8122 188.1398,113.6632 185.9948,115.8082 L185.9948,115.8082 L185.9948,115.8082 C183.8508,117.9532 180.9978,119.1342 177.9648,119.1342" id="Fill-2" fill="#000000"></path>
                <path d="M202.0547,79.9038 C201.0437,79.9038 200.0937,80.2978 199.3777,81.0118 C197.9027,82.4878 197.9027,84.8898 199.3777,86.3658 C200.8537,87.8408 203.2557,87.8408 204.7317,86.3658 C205.4467,85.6508 205.8397,84.6998 205.8397,83.6888 C205.8397,82.6778 205.4467,81.7278 204.7317,81.0128 C204.0167,80.2978 203.0657,79.9038 202.0547,79.9038 M202.0547,95.0398 C199.1467,95.0398 196.2397,93.9328 194.0257,91.7188 C189.5977,87.2908 189.5977,80.0868 194.0257,75.6588 C196.1697,73.5138 199.0217,72.3328 202.0547,72.3328 C205.0877,72.3328 207.9407,73.5138 210.0847,75.6588 C212.2297,77.8038 213.4107,80.6548 213.4107,83.6888 C213.4107,86.7218 212.2297,89.5738 210.0847,91.7188 C207.8707,93.9328 204.9627,95.0398 202.0547,95.0398" id="Fill-4" fill="#000000"></path>
                <path d="M153.876,128.0825 C152.864,128.0825 151.914,128.4765 151.199,129.1915 C150.483,129.9065 150.09,130.8565 150.09,131.8685 C150.09,132.8785 150.484,133.8295 151.199,134.5445 C151.914,135.2595 152.864,135.6535 153.876,135.6535 C154.887,135.6535 155.837,135.2595 156.552,134.5445 C157.268,133.8295 157.661,132.8785 157.661,131.8685 C157.661,130.8565 157.268,129.9065 156.553,129.1915 C155.837,128.4765 154.887,128.0825 153.876,128.0825 M153.876,143.2245 C150.843,143.2245 147.99,142.0425 145.846,139.8975 C143.701,137.7525 142.52,134.9015 142.52,131.8685 C142.52,128.8345 143.701,125.9825 145.846,123.8385 C147.99,121.6935 150.843,120.5125 153.876,120.5125 C156.909,120.5125 159.761,121.6935 161.905,123.8385 C164.05,125.9825 165.231,128.8345 165.231,131.8685 C165.231,134.9015 164.05,137.7525 161.905,139.8975 C159.761,142.0425 156.909,143.2245 153.876,143.2245" id="Fill-6" fill="#000000"></path>
                <path d="M199.3779,134.5449 C200.0939,135.2599 201.0439,135.6539 202.0549,135.6539 C203.0659,135.6539 204.0169,135.2599 204.7319,134.5449 C205.4459,133.8299 205.8399,132.8789 205.8399,131.8679 C205.8399,130.8569 205.4459,129.9069 204.7319,129.1919 C204.0169,128.4769 203.0659,128.0829 202.0549,128.0829 C201.0439,128.0829 200.0939,128.4769 199.3779,129.1919 C197.9019,130.6679 197.9019,133.0689 199.3779,134.5449 M202.0549,143.2239 C199.0219,143.2239 196.1699,142.0429 194.0249,139.8979 L194.0239,139.8979 C189.5979,135.4699 189.5979,128.2659 194.0249,123.8379 C196.1699,121.6929 199.0219,120.5119 202.0549,120.5119 C205.0879,120.5119 207.9409,121.6929 210.0849,123.8389 C212.2299,125.9829 213.4109,128.8349 213.4109,131.8679 C213.4109,134.9009 212.2299,137.7529 210.0849,139.8979 C207.9399,142.0429 205.0879,143.2239 202.0549,143.2239" id="Fill-8" fill="#000000"></path>
                <path d="M151.1992,86.3652 C152.6752,87.8412 155.0762,87.8412 156.5522,86.3652 C157.2672,85.6502 157.6612,84.6992 157.6612,83.6892 C157.6612,82.6772 157.2672,81.7272 156.5532,81.0122 C155.8372,80.2972 154.8872,79.9042 153.8762,79.9042 C152.8642,79.9042 151.9142,80.2972 151.1992,81.0122 C150.4832,81.7272 150.0902,82.6772 150.0902,83.6892 C150.0902,84.6992 150.4842,85.6502 151.1992,86.3652 Z M153.8762,95.0392 C150.9682,95.0392 148.0592,93.9322 145.8452,91.7192 L145.8452,91.7192 C143.7012,89.5732 142.5192,86.7222 142.5192,83.6892 C142.5192,80.6552 143.7012,77.8032 145.8452,75.6592 C147.9902,73.5142 150.8432,72.3332 153.8762,72.3332 C156.9092,72.3332 159.7612,73.5142 161.9052,75.6592 C164.0502,77.8032 165.2312,80.6552 165.2312,83.6892 C165.2312,86.7222 164.0502,89.5732 161.9052,91.7192 C159.6912,93.9322 156.7832,95.0392 153.8762,95.0392 L153.8762,95.0392 Z" id="Fill-10" fill="#000000"></path>
                <path d="M177.9658,77.4954 C175.9438,77.4954 174.0418,76.7084 172.6118,75.2784 C171.1818,73.8484 170.3948,71.9474 170.3948,69.9244 C170.3948,65.7514 173.7908,62.3544 177.9658,62.3544 C182.1398,62.3544 185.5358,65.7514 185.5358,69.9254 C185.5358,74.0994 182.1398,77.4954 177.9658,77.4954" id="Fill-12" fill="#F2B705"></path>
                <path d="M177.9658,152.8226 C173.7908,152.8226 170.3948,149.4256 170.3948,145.2516 C170.3948,141.0766 173.7908,137.6806 177.9658,137.6806 C182.1398,137.6806 185.5358,141.0766 185.5358,145.2516 C185.5358,149.4256 182.1398,152.8226 177.9658,152.8226" id="Fill-14" fill="#F2B705"></path>
                <path d="M215.4384,115.3493 C211.2634,115.3493 207.8674,111.9533 207.8674,107.7783 C207.8674,103.6043 211.2634,100.2073 215.4384,100.2073 C219.6124,100.2073 223.0084,103.6043 223.0084,107.7783 C223.0084,111.9533 219.6124,115.3493 215.4384,115.3493 L215.4384,115.3493 Z" id="Fill-16" fill="#F2B705"></path>
                <path d="M140.4921,115.3493 C136.3181,115.3493 132.9221,111.9533 132.9221,107.7783 C132.9221,103.6043 136.3181,100.2073 140.4921,100.2073 C144.6671,100.2073 148.0631,103.6043 148.0631,107.7783 C148.0631,111.9533 144.6671,115.3493 140.4921,115.3493 L140.4921,115.3493 Z" id="Fill-18" fill="#F2B705"></path>
                <path d="M215.4385,145.251 C205.4285,155.261 192.1205,160.772 177.9655,160.772 C163.8105,160.772 150.5015,155.261 140.4925,145.251 C130.4835,135.242 124.9705,121.934 124.9705,107.778 C124.9705,93.623 130.4835,80.315 140.4925,70.306 C150.5015,60.296 163.8105,54.784 177.9655,54.784 C192.1205,54.784 205.4285,60.296 215.4385,70.306 C225.4475,80.315 230.9595,93.623 230.9595,107.778 C230.9595,121.934 225.4475,135.242 215.4385,145.251 L215.4385,145.251 Z M234.7455,103.993 L238.4105,103.993 C238.0695,98.423 236.9765,92.999 235.1815,87.834 L231.7755,89.266 L228.8415,82.287 L232.2485,80.855 C229.9085,76.147 226.9375,71.732 223.3825,67.714 L220.7915,70.306 L215.4385,64.952 L218.0305,62.361 C213.8505,58.664 209.2425,55.6 204.3215,53.218 L202.9245,56.639 L195.9155,53.778 L197.3115,50.357 C192.3275,48.683 187.1055,47.662 181.7505,47.334 L181.7505,50.999 L174.1795,50.999 L174.1795,47.334 C168.6105,47.675 163.1855,48.767 158.0215,50.562 L159.4535,53.968 L152.4735,56.902 L151.0425,53.495 C146.3345,55.836 141.9195,58.806 137.9015,62.361 L140.4925,64.952 L135.1395,70.306 L132.5475,67.714 C128.8505,71.894 125.7875,76.502 123.4055,81.423 L126.8255,82.819 L123.9645,89.828 L120.5435,88.432 C118.8695,93.417 117.8485,98.638 117.5205,103.993 L121.1855,103.993 L121.1855,111.563 L117.5205,111.563 C117.8615,117.133 118.9545,122.558 120.7495,127.722 L124.1545,126.291 L127.0885,133.27 L123.6815,134.701 C126.0225,139.41 128.9935,143.824 132.5475,147.843 L135.1395,145.251 L140.4925,150.605 L137.9015,153.196 C142.0805,156.893 146.6885,159.957 151.6095,162.339 L153.0055,158.919 L160.0145,161.779 L158.6195,165.2 C163.6035,166.874 168.8255,167.896 174.1795,168.224 L174.1795,164.559 L181.7505,164.559 L181.7505,168.224 C187.3205,167.882 192.7455,166.79 197.9095,164.994 L196.4775,161.589 L203.4575,158.655 L204.8885,162.062 C209.5965,159.721 214.0105,156.751 218.0305,153.196 L215.4385,150.605 L220.7915,145.251 L223.3825,147.843 C227.0805,143.663 230.1435,139.055 232.5255,134.134 L229.1055,132.738 L231.9655,125.729 L235.3865,127.125 C237.0615,122.141 238.0825,116.919 238.4105,111.563 L234.7455,111.563 L234.7455,103.993 Z" id="Fill-20" fill="#000000"></path>
                <polygon id="Fill-22" fill="#000000" points="228.8418 82.2871 231.7758 89.2661 235.1818 87.8341 238.7548 86.3321 240.2218 89.8221 247.1998 86.8891 241.3338 72.9311 234.3548 75.8641 235.8208 79.3531 232.2478 80.8551"></polygon>
                <polygon id="Fill-24" fill="#000000" points="121.5762 139.6924 120.1092 136.2034 123.6812 134.7014 127.0892 133.2694 124.1542 126.2904 120.7492 127.7224 117.1762 129.2244 115.7082 125.7344 108.7292 128.6684 114.5972 142.6264"></polygon>
                <polygon id="Fill-26" fill="#000000" points="206.3896 165.6348 204.8886 162.0618 203.4566 158.6558 196.4776 161.5888 197.9096 164.9948 199.4106 168.5688 195.9216 170.0348 198.8556 177.0138 212.8136 171.1468 209.8796 164.1678"></polygon>
                <polygon id="Fill-28" fill="#000000" points="149.54 49.9224 151.042 53.4954 152.474 56.9014 159.453 53.9684 158.021 50.5624 156.519 46.9884 160.009 45.5224 157.075 38.5434 143.117 44.4104 146.051 51.3894"></polygon>
                <polygon id="Fill-30" fill="#000000" points="238.9756 128.5894 235.3866 127.1254 231.9656 125.7294 229.1056 132.7384 232.5256 134.1344 236.1146 135.5984 234.6836 139.1034 241.6936 141.9644 247.4146 127.9454 240.4056 125.0854"></polygon>
                <polygon id="Fill-32" fill="#000000" points="114.2373 73.5928 108.5153 87.6118 115.5253 90.4718 116.9553 86.9678 120.5443 88.4318 123.9653 89.8278 126.8253 82.8188 123.4053 81.4228 119.8163 79.9578 121.2463 76.4528"></polygon>
                <polygon id="Fill-34" fill="#000000" points="158.6191 165.2002 160.0151 161.7792 153.0061 158.9192 151.6091 162.3392 150.1451 165.9282 146.6401 164.4972 143.7791 171.5072 157.7991 177.2272 160.6591 170.2192 157.1541 168.7882"></polygon>
                <polygon id="Fill-36" fill="#000000" points="195.915 53.7778 202.925 56.6388 204.321 53.2178 205.785 49.6288 209.29 51.0588 212.15 44.0498 198.132 38.3288 195.271 45.3388 198.776 46.7688 197.311 50.3568"></polygon>
                <polygon id="Fill-38" fill="#000000" points="223.3828 67.7139 234.1748 56.9219 239.5278 62.2759 244.8808 56.9229 228.8208 40.8629 223.4678 46.2159 228.8208 51.5689 218.0298 62.3609 215.4388 64.9529 220.7908 70.3059"></polygon>
                <polygon id="Fill-40" fill="#000000" points="132.5479 147.8428 121.7559 158.6348 116.4019 153.2808 111.0499 158.6338 127.1099 174.6948 132.4629 169.3408 127.1099 163.9878 137.9019 153.1968 140.4919 150.6048 135.1399 145.2518"></polygon>
                <polygon id="Fill-42" fill="#000000" points="234.1748 158.6348 223.3828 147.8428 220.7908 145.2518 215.4388 150.6048 218.0298 153.1968 228.8208 163.9878 223.4678 169.3408 228.8208 174.6948 244.8808 158.6338 239.5278 153.2808"></polygon>
                <polygon id="Fill-44" fill="#000000" points="127.1094 51.5693 132.4634 46.2153 127.1094 40.8623 111.0494 56.9233 116.4024 62.2763 121.7554 56.9233 132.5474 67.7143 135.1394 70.3053 140.4924 64.9523 137.9014 62.3613"></polygon>
                <polygon id="Fill-46" fill="#000000" points="253.6719 96.4224 253.6719 103.9934 238.4099 103.9934 234.7449 103.9934 234.7449 111.5644 238.4099 111.5644 253.6719 111.5644 253.6719 119.1344 261.2419 119.1344 261.2419 96.4224"></polygon>
                <polygon id="Fill-48" fill="#000000" points="121.1855 111.564 121.1855 103.993 117.5205 103.993 102.2585 103.993 102.2585 96.422 94.6885 96.422 94.6885 119.135 102.2585 119.135 102.2585 111.564 117.5205 111.564"></polygon>
                <polygon id="Fill-50" fill="#000000" points="181.751 168.2236 181.751 164.5586 174.18 164.5586 174.18 168.2236 174.18 183.4846 166.609 183.4846 166.609 191.0556 189.321 191.0556 189.321 183.4846 181.751 183.4846"></polygon>
                <polygon id="Fill-52" fill="#000000" points="166.6094 32.0723 174.1794 32.0723 174.1794 47.3333 174.1794 50.9993 181.7514 50.9993 181.7514 47.3333 181.7514 32.0723 189.3214 32.0723 189.3214 24.5013 166.6094 24.5013"></polygon>
                <path d="M0.3076,117.1348 L0.3076,98.8678 L25.4216,98.8678 C30.2896,98.8678 34.2946,98.4598 37.4166,97.6228 C40.5296,96.7868 42.9266,95.4488 44.6086,93.6098 C46.2806,91.7878 47.3766,89.4278 47.9156,86.5478 C48.4456,83.6498 48.5666,80.1368 48.2596,76.0308 L45.9736,38.3638 C45.6666,32.4178 46.4286,27.1028 48.2596,22.3838 C50.0896,17.6628 52.8216,13.6498 56.4826,10.3878 C60.1336,7.1178 64.6586,4.6468 70.0656,2.9648 C75.4636,1.2928 81.5216,0.4558 88.2206,0.4558 L98.4966,0.4558 L98.4966,18.7228 L88.2206,18.7228 C80.9086,18.7228 75.3896,20.3578 71.6636,23.6288 C67.9286,26.8988 66.2196,31.8228 66.5266,38.3638 L68.8116,76.0308 C69.1086,80.1368 68.7276,84.0578 67.6686,87.7928 C66.6006,91.5288 64.9646,94.7988 62.7536,97.6228 C60.5516,100.4288 57.7736,102.6778 54.4196,104.3498 C51.0746,106.0228 47.1166,106.9328 42.5546,107.0818 L42.5546,108.2338 C47.1166,108.3828 51.1126,109.3298 54.5396,111.0768 C57.9586,112.8428 60.7376,115.1648 62.8736,118.0458 C65.0016,120.9438 66.6006,124.2888 67.6686,128.0978 C68.7276,131.9078 69.1086,135.8658 68.8116,139.9718 L66.5266,177.1928 C66.2196,183.7338 67.9286,188.6398 71.6636,191.9098 C75.3896,195.1988 80.9086,196.8338 88.2206,196.8338 L98.4966,196.8338 L98.4966,215.1008 L88.2206,215.1008 C81.5216,215.1008 75.4636,214.2648 70.0656,212.5918 C64.6586,210.9018 60.1336,208.4298 56.4826,205.1588 C52.8216,201.8888 50.0896,197.8938 48.2596,193.1738 C46.4286,188.4538 45.6666,183.1198 45.9736,177.1928 L48.2596,139.9718 C48.5666,135.8658 48.4456,132.3538 47.9156,129.4728 C47.3766,126.5748 46.2806,124.2148 44.6086,122.3938 C42.9266,120.5538 40.5666,119.2348 37.5286,118.3988 C34.4806,117.5618 30.4486,117.1348 25.4216,117.1348 L0.3076,117.1348 Z" id="Fill-54" fill="#F2B705"></path>
                <path d="M257.4336,215.1006 L257.4336,196.8336 L267.7096,196.8336 C275.0126,196.8336 280.5316,195.1996 284.2666,191.9106 C287.9926,188.6396 289.7026,183.7336 289.4046,177.1926 L287.1196,139.7496 C286.9606,135.6236 287.3786,131.7216 288.3726,127.9866 C289.3586,124.2516 290.9556,120.9806 293.1676,118.1566 C295.3706,115.3506 298.1576,113.1016 301.5016,111.4296 C304.8466,109.7576 308.8146,108.8466 313.3756,108.6796 L313.3756,107.5466 C308.8146,107.3976 304.8096,106.4496 301.3906,104.6846 C297.9616,102.9376 295.1836,100.6146 293.0566,97.7346 C290.9186,94.8356 289.3586,91.4916 288.3726,87.6816 C287.3786,83.8716 286.9606,79.9136 287.1196,75.8076 L289.4046,38.3646 C289.7026,31.8236 287.9926,26.8986 284.2666,23.6286 C280.5316,20.3576 275.0126,18.7226 267.7096,18.7226 L257.4336,18.7226 L257.4336,0.4556 L267.7096,0.4556 C274.4096,0.4556 280.4566,1.2926 285.8656,2.9646 C291.2626,4.6466 295.7966,7.1176 299.4486,10.3886 C303.0996,13.6496 305.8406,17.6636 307.6706,22.3836 C309.4926,27.1026 310.2536,32.4176 309.9476,38.3646 L307.6706,75.8076 C307.5136,79.9136 307.6706,83.4266 308.1266,86.3066 C308.5816,89.2056 309.6406,91.5656 311.3226,93.3866 C312.9956,95.2076 315.3556,96.5456 318.4026,97.3816 C321.4406,98.2176 325.4826,98.6446 330.4996,98.6446 L355.6226,98.6446 L355.6226,116.9116 L330.4996,116.9116 C325.6306,116.9116 321.6356,117.3206 318.5136,118.1566 C315.3926,119.0116 312.9956,120.3306 311.3226,122.1516 C309.6406,123.9916 308.5816,126.3516 308.1266,129.2316 C307.6706,132.1306 307.5136,135.6236 307.6706,139.7496 L309.9476,177.1926 C310.2536,183.1206 309.4926,188.4546 307.6706,193.1736 C305.8406,197.8936 303.0996,201.8886 299.4486,205.1596 C295.7966,208.4296 291.2626,210.9016 285.8656,212.5916 C280.4566,214.2646 274.4096,215.1006 267.7096,215.1006 L257.4336,215.1006 Z" id="Fill-56" fill="#F2B705"></path>
            </g>
        </g>
    </g>
</svg>