<?xml version="1.0" encoding="UTF-8"?>
<svg width="710px" height="55px" viewBox="0 0 710 55" version="1.1" xmlns="http://www.w3.org/2000/svg" xmlns:xlink="http://www.w3.org/1999/xlink">
    <!-- Generator: Sketch 61.2 (89653) - https://sketch.com -->
    <title>#tech4COVID19BR</title>
    <desc>Created with Sketch.</desc>
    <g id="Page-1" stroke="none" stroke-width="1" fill="none" fill-rule="evenodd">
        <g id="Artboard-1" transform="translate(-258.000000, -650.000000)" fill="#F2B705" fill-rule="nonzero">
            <path d="M270.6,654.6 L270.6,650.4 L266.4,650.4 L266.4,654.6 L270.6,654.6 Z M287.4,654.6 L287.4,650.4 L283.2,650.4 L283.2,654.6 L287.4,654.6 Z M295.8,663 L295.8,658.8 L291.6,658.8 L291.6,663 L295.8,663 Z M287.4,663 L287.4,658.8 L283.2,658.8 L283.2,663 L287.4,663 Z M279,663 L279,658.8 L274.8,658.8 L274.8,663 L279,663 Z M270.6,663 L270.6,658.8 L266.4,658.8 L266.4,663 L270.6,663 Z M262.2,663 L262.2,658.8 L258,658.8 L258,663 L262.2,663 Z M287.4,671.4 L287.4,667.2 L283.2,667.2 L283.2,671.4 L287.4,671.4 Z M270.6,671.4 L270.6,667.2 L266.4,667.2 L266.4,671.4 L270.6,671.4 Z M287.4,679.8 L287.4,675.6 L283.2,675.6 L283.2,679.8 L287.4,679.8 Z M270.6,679.8 L270.6,675.6 L266.4,675.6 L266.4,679.8 L270.6,679.8 Z M287.4,688.2 L287.4,684 L283.2,684 L283.2,688.2 L287.4,688.2 Z M270.6,688.2 L270.6,684 L266.4,684 L266.4,688.2 L270.6,688.2 Z M295.8,696.6 L295.8,692.4 L291.6,692.4 L291.6,696.6 L295.8,696.6 Z M287.4,696.6 L287.4,692.4 L283.2,692.4 L283.2,696.6 L287.4,696.6 Z M279,696.6 L279,692.4 L274.8,692.4 L274.8,696.6 L279,696.6 Z M270.6,696.6 L270.6,692.4 L266.4,692.4 L266.4,696.6 L270.6,696.6 Z M262.2,696.6 L262.2,692.4 L258,692.4 L258,696.6 L262.2,696.6 Z M287.4,705 L287.4,700.8 L283.2,700.8 L283.2,705 L287.4,705 Z M270.6,705 L270.6,700.8 L266.4,700.8 L266.4,705 L270.6,705 Z M321,654.6 L321,650.4 L316.8,650.4 L316.8,654.6 L321,654.6 Z M321,663 L321,658.8 L316.8,658.8 L316.8,663 L321,663 Z M329.4,671.4 L329.4,667.2 L325.2,667.2 L325.2,671.4 L329.4,671.4 Z M321,671.4 L321,667.2 L316.8,667.2 L316.8,671.4 L321,671.4 Z M312.6,671.4 L312.6,667.2 L308.4,667.2 L308.4,671.4 L312.6,671.4 Z M321,679.8 L321,675.6 L316.8,675.6 L316.8,679.8 L321,679.8 Z M321,688.2 L321,684 L316.8,684 L316.8,688.2 L321,688.2 Z M321,696.6 L321,692.4 L316.8,692.4 L316.8,696.6 L321,696.6 Z M337.8,705 L337.8,700.8 L333.6,700.8 L333.6,705 L337.8,705 Z M329.4,705 L329.4,700.8 L325.2,700.8 L325.2,705 L329.4,705 Z M363,671.4 L363,667.2 L358.8,667.2 L358.8,671.4 L363,671.4 Z M371.4,671.4 L371.4,667.2 L367.2,667.2 L367.2,671.4 L371.4,671.4 Z M379.8,679.8 L379.8,675.6 L375.6,675.6 L375.6,679.8 L379.8,679.8 Z M354.6,679.8 L354.6,675.6 L350.4,675.6 L350.4,679.8 L354.6,679.8 Z M379.8,688.2 L379.8,684 L375.6,684 L375.6,688.2 L379.8,688.2 Z M371.4,688.2 L371.4,684 L367.2,684 L367.2,688.2 L371.4,688.2 Z M363,688.2 L363,684 L358.8,684 L358.8,688.2 L363,688.2 Z M354.6,688.2 L354.6,684 L350.4,684 L350.4,688.2 L354.6,688.2 Z M354.6,696.6 L354.6,692.4 L350.4,692.4 L350.4,696.6 L354.6,696.6 Z M379.8,705 L379.8,700.8 L375.6,700.8 L375.6,705 L379.8,705 Z M371.4,705 L371.4,700.8 L367.2,700.8 L367.2,705 L371.4,705 Z M363,705 L363,700.8 L358.8,700.8 L358.8,705 L363,705 Z M405,671.4 L405,667.2 L400.8,667.2 L400.8,671.4 L405,671.4 Z M421.8,671.4 L421.8,667.2 L417.6,667.2 L417.6,671.4 L421.8,671.4 Z M413.4,671.4 L413.4,667.2 L409.2,667.2 L409.2,671.4 L413.4,671.4 Z M396.6,679.8 L396.6,675.6 L392.4,675.6 L392.4,679.8 L396.6,679.8 Z M396.6,688.2 L396.6,684 L392.4,684 L392.4,688.2 L396.6,688.2 Z M396.6,696.6 L396.6,692.4 L392.4,692.4 L392.4,696.6 L396.6,696.6 Z M421.8,705 L421.8,700.8 L417.6,700.8 L417.6,705 L421.8,705 Z M413.4,705 L413.4,700.8 L409.2,700.8 L409.2,705 L413.4,705 Z M405,705 L405,700.8 L400.8,700.8 L400.8,705 L405,705 Z M438.6,654.6 L438.6,650.4 L434.4,650.4 L434.4,654.6 L438.6,654.6 Z M438.6,663 L438.6,658.8 L434.4,658.8 L434.4,663 L438.6,663 Z M455.4,671.4 L455.4,667.2 L451.2,667.2 L451.2,671.4 L455.4,671.4 Z M447,671.4 L447,667.2 L442.8,667.2 L442.8,671.4 L447,671.4 Z M438.6,671.4 L438.6,667.2 L434.4,667.2 L434.4,671.4 L438.6,671.4 Z M463.8,679.8 L463.8,675.6 L459.6,675.6 L459.6,679.8 L463.8,679.8 Z M438.6,679.8 L438.6,675.6 L434.4,675.6 L434.4,679.8 L438.6,679.8 Z M463.8,688.2 L463.8,684 L459.6,684 L459.6,688.2 L463.8,688.2 Z M438.6,688.2 L438.6,684 L434.4,684 L434.4,688.2 L438.6,688.2 Z M463.8,696.6 L463.8,692.4 L459.6,692.4 L459.6,696.6 L463.8,696.6 Z M438.6,696.6 L438.6,692.4 L434.4,692.4 L434.4,696.6 L438.6,696.6 Z M463.8,705 L463.8,700.8 L459.6,700.8 L459.6,705 L463.8,705 Z M438.6,705 L438.6,700.8 L434.4,700.8 L434.4,705 L438.6,705 Z M505.8,654.6 L505.8,650.4 L501.6,650.4 L501.6,654.6 L505.8,654.6 Z M514.2,654.6 L514.2,650.4 L510,650.4 L510,654.6 L514.2,654.6 Z M514.2,663 L514.2,658.8 L510,658.8 L510,663 L514.2,663 Z M497.4,663 L497.4,658.8 L493.2,658.8 L493.2,663 L497.4,663 Z M514.2,671.4 L514.2,667.2 L510,667.2 L510,671.4 L514.2,671.4 Z M489,671.4 L489,667.2 L484.8,667.2 L484.8,671.4 L489,671.4 Z M514.2,679.8 L514.2,675.6 L510,675.6 L510,679.8 L514.2,679.8 Z M480.6,679.8 L480.6,675.6 L476.4,675.6 L476.4,679.8 L480.6,679.8 Z M514.2,688.2 L514.2,684 L510,684 L510,688.2 L514.2,688.2 Z M505.8,688.2 L505.8,684 L501.6,684 L501.6,688.2 L505.8,688.2 Z M497.4,688.2 L497.4,684 L493.2,684 L493.2,688.2 L497.4,688.2 Z M489,688.2 L489,684 L484.8,684 L484.8,688.2 L489,688.2 Z M480.6,688.2 L480.6,684 L476.4,684 L476.4,688.2 L480.6,688.2 Z M514.2,696.6 L514.2,692.4 L510,692.4 L510,696.6 L514.2,696.6 Z M514.2,705 L514.2,700.8 L510,700.8 L510,705 L514.2,705 Z M539.4,654.6 L539.4,650.4 L535.2,650.4 L535.2,654.6 L539.4,654.6 Z M556.2,654.6 L556.2,650.4 L552,650.4 L552,654.6 L556.2,654.6 Z M547.8,654.6 L547.8,650.4 L543.6,650.4 L543.6,654.6 L547.8,654.6 Z M564.6,663 L564.6,658.8 L560.4,658.8 L560.4,663 L564.6,663 Z M531,663 L531,658.8 L526.8,658.8 L526.8,663 L531,663 Z M531,671.4 L531,667.2 L526.8,667.2 L526.8,671.4 L531,671.4 Z M531,679.8 L531,675.6 L526.8,675.6 L526.8,679.8 L531,679.8 Z M531,688.2 L531,684 L526.8,684 L526.8,688.2 L531,688.2 Z M564.6,696.6 L564.6,692.4 L560.4,692.4 L560.4,696.6 L564.6,696.6 Z M531,696.6 L531,692.4 L526.8,692.4 L526.8,696.6 L531,696.6 Z M556.2,705 L556.2,700.8 L552,700.8 L552,705 L556.2,705 Z M547.8,705 L547.8,700.8 L543.6,700.8 L543.6,705 L547.8,705 Z M539.4,705 L539.4,700.8 L535.2,700.8 L535.2,705 L539.4,705 Z M589.8,654.6 L589.8,650.4 L585.6,650.4 L585.6,654.6 L589.8,654.6 Z M606.6,654.6 L606.6,650.4 L602.4,650.4 L602.4,654.6 L606.6,654.6 Z M598.2,654.6 L598.2,650.4 L594,650.4 L594,654.6 L598.2,654.6 Z M615,663 L615,658.8 L610.8,658.8 L610.8,663 L615,663 Z M581.4,663 L581.4,658.8 L577.2,658.8 L577.2,663 L581.4,663 Z M615,671.4 L615,667.2 L610.8,667.2 L610.8,671.4 L615,671.4 Z M581.4,671.4 L581.4,667.2 L577.2,667.2 L577.2,671.4 L581.4,671.4 Z M615,679.8 L615,675.6 L610.8,675.6 L610.8,679.8 L615,679.8 Z M581.4,679.8 L581.4,675.6 L577.2,675.6 L577.2,679.8 L581.4,679.8 Z M615,688.2 L615,684 L610.8,684 L610.8,688.2 L615,688.2 Z M581.4,688.2 L581.4,684 L577.2,684 L577.2,688.2 L581.4,688.2 Z M615,696.6 L615,692.4 L610.8,692.4 L610.8,696.6 L615,696.6 Z M581.4,696.6 L581.4,692.4 L577.2,692.4 L577.2,696.6 L581.4,696.6 Z M606.6,705 L606.6,700.8 L602.4,700.8 L602.4,705 L606.6,705 Z M598.2,705 L598.2,700.8 L594,700.8 L594,705 L598.2,705 Z M589.8,705 L589.8,700.8 L585.6,700.8 L585.6,705 L589.8,705 Z M631.8,654.6 L631.8,650.4 L627.6,650.4 L627.6,654.6 L631.8,654.6 Z M665.4,654.6 L665.4,650.4 L661.2,650.4 L661.2,654.6 L665.4,654.6 Z M665.4,663 L665.4,658.8 L661.2,658.8 L661.2,663 L665.4,663 Z M631.8,663 L631.8,658.8 L627.6,658.8 L627.6,663 L631.8,663 Z M665.4,671.4 L665.4,667.2 L661.2,667.2 L661.2,671.4 L665.4,671.4 Z M631.8,671.4 L631.8,667.2 L627.6,667.2 L627.6,671.4 L631.8,671.4 Z M665.4,679.8 L665.4,675.6 L661.2,675.6 L661.2,679.8 L665.4,679.8 Z M631.8,679.8 L631.8,675.6 L627.6,675.6 L627.6,679.8 L631.8,679.8 Z M665.4,688.2 L665.4,684 L661.2,684 L661.2,688.2 L665.4,688.2 Z M631.8,688.2 L631.8,684 L627.6,684 L627.6,688.2 L631.8,688.2 Z M657,696.6 L657,692.4 L652.8,692.4 L652.8,696.6 L657,696.6 Z M640.2,696.6 L640.2,692.4 L636,692.4 L636,696.6 L640.2,696.6 Z M648.6,705 L648.6,700.8 L644.4,700.8 L644.4,705 L648.6,705 Z M682.2,654.6 L682.2,650.4 L678,650.4 L678,654.6 L682.2,654.6 Z M715.8,654.6 L715.8,650.4 L711.6,650.4 L711.6,654.6 L715.8,654.6 Z M707.4,654.6 L707.4,650.4 L703.2,650.4 L703.2,654.6 L707.4,654.6 Z M699,654.6 L699,650.4 L694.8,650.4 L694.8,654.6 L699,654.6 Z M690.6,654.6 L690.6,650.4 L686.4,650.4 L686.4,654.6 L690.6,654.6 Z M699,663 L699,658.8 L694.8,658.8 L694.8,663 L699,663 Z M699,671.4 L699,667.2 L694.8,667.2 L694.8,671.4 L699,671.4 Z M699,679.8 L699,675.6 L694.8,675.6 L694.8,679.8 L699,679.8 Z M699,688.2 L699,684 L694.8,684 L694.8,688.2 L699,688.2 Z M699,696.6 L699,692.4 L694.8,692.4 L694.8,696.6 L699,696.6 Z M715.8,705 L715.8,700.8 L711.6,700.8 L711.6,705 L715.8,705 Z M707.4,705 L707.4,700.8 L703.2,700.8 L703.2,705 L707.4,705 Z M699,705 L699,700.8 L694.8,700.8 L694.8,705 L699,705 Z M690.6,705 L690.6,700.8 L686.4,700.8 L686.4,705 L690.6,705 Z M682.2,705 L682.2,700.8 L678,700.8 L678,705 L682.2,705 Z M732.6,654.6 L732.6,650.4 L728.4,650.4 L728.4,654.6 L732.6,654.6 Z M757.8,654.6 L757.8,650.4 L753.6,650.4 L753.6,654.6 L757.8,654.6 Z M749.4,654.6 L749.4,650.4 L745.2,650.4 L745.2,654.6 L749.4,654.6 Z M741,654.6 L741,650.4 L736.8,650.4 L736.8,654.6 L741,654.6 Z M766.2,663 L766.2,658.8 L762,658.8 L762,663 L766.2,663 Z M732.6,663 L732.6,658.8 L728.4,658.8 L728.4,663 L732.6,663 Z M766.2,671.4 L766.2,667.2 L762,667.2 L762,671.4 L766.2,671.4 Z M732.6,671.4 L732.6,667.2 L728.4,667.2 L728.4,671.4 L732.6,671.4 Z M766.2,679.8 L766.2,675.6 L762,675.6 L762,679.8 L766.2,679.8 Z M732.6,679.8 L732.6,675.6 L728.4,675.6 L728.4,679.8 L732.6,679.8 Z M766.2,688.2 L766.2,684 L762,684 L762,688.2 L766.2,688.2 Z M732.6,688.2 L732.6,684 L728.4,684 L728.4,688.2 L732.6,688.2 Z M766.2,696.6 L766.2,692.4 L762,692.4 L762,696.6 L766.2,696.6 Z M732.6,696.6 L732.6,692.4 L728.4,692.4 L728.4,696.6 L732.6,696.6 Z M757.8,705 L757.8,700.8 L753.6,700.8 L753.6,705 L757.8,705 Z M749.4,705 L749.4,700.8 L745.2,700.8 L745.2,705 L749.4,705 Z M741,705 L741,700.8 L736.8,700.8 L736.8,705 L741,705 Z M732.6,705 L732.6,700.8 L728.4,700.8 L728.4,705 L732.6,705 Z M799.8,654.6 L799.8,650.4 L795.6,650.4 L795.6,654.6 L799.8,654.6 Z M799.8,663 L799.8,658.8 L795.6,658.8 L795.6,663 L799.8,663 Z M791.4,663 L791.4,658.8 L787.2,658.8 L787.2,663 L791.4,663 Z M799.8,671.4 L799.8,667.2 L795.6,667.2 L795.6,671.4 L799.8,671.4 Z M783,671.4 L783,667.2 L778.8,667.2 L778.8,671.4 L783,671.4 Z M799.8,679.8 L799.8,675.6 L795.6,675.6 L795.6,679.8 L799.8,679.8 Z M799.8,688.2 L799.8,684 L795.6,684 L795.6,688.2 L799.8,688.2 Z M799.8,696.6 L799.8,692.4 L795.6,692.4 L795.6,696.6 L799.8,696.6 Z M816.6,705 L816.6,700.8 L812.4,700.8 L812.4,705 L816.6,705 Z M808.2,705 L808.2,700.8 L804,700.8 L804,705 L808.2,705 Z M799.8,705 L799.8,700.8 L795.6,700.8 L795.6,705 L799.8,705 Z M791.4,705 L791.4,700.8 L787.2,700.8 L787.2,705 L791.4,705 Z M783,705 L783,700.8 L778.8,700.8 L778.8,705 L783,705 Z M841.8,654.6 L841.8,650.4 L837.6,650.4 L837.6,654.6 L841.8,654.6 Z M858.6,654.6 L858.6,650.4 L854.4,650.4 L854.4,654.6 L858.6,654.6 Z M850.2,654.6 L850.2,650.4 L846,650.4 L846,654.6 L850.2,654.6 Z M867,663 L867,658.8 L862.8,658.8 L862.8,663 L867,663 Z M833.4,663 L833.4,658.8 L829.2,658.8 L829.2,663 L833.4,663 Z M867,671.4 L867,667.2 L862.8,667.2 L862.8,671.4 L867,671.4 Z M833.4,671.4 L833.4,667.2 L829.2,667.2 L829.2,671.4 L833.4,671.4 Z M867,679.8 L867,675.6 L862.8,675.6 L862.8,679.8 L867,679.8 Z M858.6,679.8 L858.6,675.6 L854.4,675.6 L854.4,679.8 L858.6,679.8 Z M850.2,679.8 L850.2,675.6 L846,675.6 L846,679.8 L850.2,679.8 Z M841.8,679.8 L841.8,675.6 L837.6,675.6 L837.6,679.8 L841.8,679.8 Z M867,688.2 L867,684 L862.8,684 L862.8,688.2 L867,688.2 Z M867,696.6 L867,692.4 L862.8,692.4 L862.8,696.6 L867,696.6 Z M858.6,705 L858.6,700.8 L854.4,700.8 L854.4,705 L858.6,705 Z M850.2,705 L850.2,700.8 L846,700.8 L846,705 L850.2,705 Z M841.8,705 L841.8,700.8 L837.6,700.8 L837.6,705 L841.8,705 Z M883.8,654.6 L883.8,650.4 L879.6,650.4 L879.6,654.6 L883.8,654.6 Z M909,654.6 L909,650.4 L904.8,650.4 L904.8,654.6 L909,654.6 Z M900.6,654.6 L900.6,650.4 L896.4,650.4 L896.4,654.6 L900.6,654.6 Z M892.2,654.6 L892.2,650.4 L888,650.4 L888,654.6 L892.2,654.6 Z M917.4,663 L917.4,658.8 L913.2,658.8 L913.2,663 L917.4,663 Z M883.8,663 L883.8,658.8 L879.6,658.8 L879.6,663 L883.8,663 Z M917.4,671.4 L917.4,667.2 L913.2,667.2 L913.2,671.4 L917.4,671.4 Z M883.8,671.4 L883.8,667.2 L879.6,667.2 L879.6,671.4 L883.8,671.4 Z M909,679.8 L909,675.6 L904.8,675.6 L904.8,679.8 L909,679.8 Z M900.6,679.8 L900.6,675.6 L896.4,675.6 L896.4,679.8 L900.6,679.8 Z M892.2,679.8 L892.2,675.6 L888,675.6 L888,679.8 L892.2,679.8 Z M883.8,679.8 L883.8,675.6 L879.6,675.6 L879.6,679.8 L883.8,679.8 Z M917.4,688.2 L917.4,684 L913.2,684 L913.2,688.2 L917.4,688.2 Z M883.8,688.2 L883.8,684 L879.6,684 L879.6,688.2 L883.8,688.2 Z M917.4,696.6 L917.4,692.4 L913.2,692.4 L913.2,696.6 L917.4,696.6 Z M883.8,696.6 L883.8,692.4 L879.6,692.4 L879.6,696.6 L883.8,696.6 Z M909,705 L909,700.8 L904.8,700.8 L904.8,705 L909,705 Z M900.6,705 L900.6,700.8 L896.4,700.8 L896.4,705 L900.6,705 Z M892.2,705 L892.2,700.8 L888,700.8 L888,705 L892.2,705 Z M883.8,705 L883.8,700.8 L879.6,700.8 L879.6,705 L883.8,705 Z M934.2,654.6 L934.2,650.4 L930,650.4 L930,654.6 L934.2,654.6 Z M959.4,654.6 L959.4,650.4 L955.2,650.4 L955.2,654.6 L959.4,654.6 Z M951,654.6 L951,650.4 L946.8,650.4 L946.8,654.6 L951,654.6 Z M942.6,654.6 L942.6,650.4 L938.4,650.4 L938.4,654.6 L942.6,654.6 Z M967.8,663 L967.8,658.8 L963.6,658.8 L963.6,663 L967.8,663 Z M934.2,663 L934.2,658.8 L930,658.8 L930,663 L934.2,663 Z M967.8,671.4 L967.8,667.2 L963.6,667.2 L963.6,671.4 L967.8,671.4 Z M934.2,671.4 L934.2,667.2 L930,667.2 L930,671.4 L934.2,671.4 Z M959.4,679.8 L959.4,675.6 L955.2,675.6 L955.2,679.8 L959.4,679.8 Z M951,679.8 L951,675.6 L946.8,675.6 L946.8,679.8 L951,679.8 Z M942.6,679.8 L942.6,675.6 L938.4,675.6 L938.4,679.8 L942.6,679.8 Z M934.2,679.8 L934.2,675.6 L930,675.6 L930,679.8 L934.2,679.8 Z M951,688.2 L951,684 L946.8,684 L946.8,688.2 L951,688.2 Z M934.2,688.2 L934.2,684 L930,684 L930,688.2 L934.2,688.2 Z M959.4,696.6 L959.4,692.4 L955.2,692.4 L955.2,696.6 L959.4,696.6 Z M934.2,696.6 L934.2,692.4 L930,692.4 L930,696.6 L934.2,696.6 Z M967.8,705 L967.8,700.8 L963.6,700.8 L963.6,705 L967.8,705 Z M934.2,705 L934.2,700.8 L930,700.8 L930,705 L934.2,705 Z" id="#tech4COVID19BR"></path>
        </g>
    </g>
</svg>