<svg width="644" height="55" viewBox="0 0 644 55" 
    xmlns="http://www.w3.org/2000/svg">
    <path d="M10.952 54H4.4l2.376-13.104H.872v-6.192h6.984l2.448-13.968H3.176v-6.192h8.208L13.688 1.44h6.552l-2.376 13.104h10.08L30.248 1.44H36.8l-2.376 13.104h5.904v6.192h-6.984l-2.448 13.968h7.128v6.192h-8.208L27.512 54H20.96l2.376-13.104h-10.08L10.952 54zm5.832-33.264l-2.448 13.968h10.08l2.448-13.968h-10.08zM68.092 54c-3.792 0-6.768-1.032-8.928-3.096-2.112-2.112-3.168-5.04-3.168-8.784V22.536H45.268V14.4h10.728V3.6h9.072v10.8H80.26v8.136H65.068V42.12c0 2.496 1.224 3.744 3.672 3.744h10.8V54H68.092zm55.268-17.64H99.168v2.808c0 5.616 2.64 8.424 7.92 8.424 2.016 0 3.624-.336 4.824-1.008 1.2-.72 1.968-1.752 2.304-3.096h8.928c-.672 3.408-2.472 6.144-5.4 8.208-2.928 2.016-6.504 3.024-10.728 3.024-3.36 0-6.288-.648-8.784-1.944-2.448-1.296-4.344-3.096-5.688-5.4-1.344-2.352-2.016-5.088-2.016-8.208v-9.936c0-3.12.672-5.832 2.016-8.136 1.344-2.352 3.264-4.176 5.76-5.472 2.496-1.296 5.4-1.944 8.712-1.944 3.312 0 6.192.648 8.64 1.944 2.448 1.296 4.344 3.12 5.688 5.472 1.344 2.304 2.016 5.016 2.016 8.136v7.128zm-24.192-5.616l15.552-.144v-1.44c0-2.784-.648-4.896-1.944-6.336-1.296-1.44-3.216-2.16-5.76-2.16-2.592 0-4.56.744-5.904 2.232-1.296 1.44-1.944 3.552-1.944 6.336v1.512zm51.164 23.976c-5.088 0-9.144-1.392-12.168-4.176-2.976-2.832-4.464-6.624-4.464-11.376v-9.936c0-4.752 1.488-8.52 4.464-11.304 3.024-2.832 7.08-4.248 12.168-4.248 4.992 0 8.976 1.296 11.952 3.888 2.976 2.544 4.536 6.024 4.68 10.44h-9c-.144-2.064-.888-3.648-2.232-4.752-1.344-1.152-3.144-1.728-5.4-1.728-2.4 0-4.272.672-5.616 2.016-1.344 1.296-2.016 3.168-2.016 5.616v10.008c0 2.448.672 4.344 2.016 5.688 1.344 1.344 3.216 2.016 5.616 2.016 2.256 0 4.056-.552 5.4-1.656 1.344-1.152 2.088-2.76 2.232-4.824h9c-.144 4.416-1.704 7.92-4.68 10.512-2.976 2.544-6.96 3.816-11.952 3.816zM196.6 13.68c3.936 0 7.056 1.296 9.36 3.888 2.352 2.592 3.528 6.072 3.528 10.44V54h-9V28.944c0-2.352-.624-4.176-1.872-5.472-1.248-1.344-3-2.016-5.256-2.016-2.256 0-4.008.672-5.256 2.016-1.248 1.344-1.872 3.264-1.872 5.76V54h-9V1.44h9V14.4l-.216 7.56h.144c.384-2.592 1.488-4.608 3.312-6.048 1.824-1.488 4.2-2.232 7.128-2.232zM251.939 54h-9V43.56h-23.4V30.528L239.771 1.44h10.08l-21.672 31.464v2.736h14.76V23.76h9V54zm27.98.72c-5.088 0-9.144-1.392-12.168-4.176-3.024-2.832-4.536-6.624-4.536-11.376V16.272c0-4.752 1.512-8.52 4.536-11.304 3.024-2.832 7.08-4.248 12.168-4.248 3.312 0 6.216.648 8.712 1.944 2.544 1.248 4.512 3.048 5.904 5.4 1.392 2.352 2.088 5.088 2.088 8.208h-9.072c0-2.448-.672-4.344-2.016-5.688-1.296-1.344-3.168-2.016-5.616-2.016-2.448 0-4.344.672-5.688 2.016-1.344 1.296-2.016 3.168-2.016 5.616v22.968c0 2.448.672 4.344 2.016 5.688 1.344 1.344 3.24 2.016 5.688 2.016 2.4 0 4.272-.672 5.616-2.016 1.344-1.344 2.016-3.24 2.016-5.688h9.072c0 3.12-.696 5.856-2.088 8.208-1.392 2.352-3.36 4.176-5.904 5.472-2.496 1.248-5.4 1.872-8.712 1.872zm42.884 0c-5.04 0-9.048-1.392-12.024-4.176-2.928-2.832-4.392-6.624-4.392-11.376V16.272c0-4.752 1.464-8.52 4.392-11.304C313.755 2.136 317.763.72 322.803.72c5.04 0 9.024 1.416 11.952 4.248 2.976 2.784 4.464 6.528 4.464 11.232v22.968c0 4.752-1.488 8.544-4.464 11.376-2.928 2.784-6.912 4.176-11.952 4.176zm0-7.848c2.448 0 4.296-.648 5.544-1.944 1.248-1.344 1.872-3.264 1.872-5.76V16.272c0-2.496-.624-4.392-1.872-5.688-1.248-1.344-3.096-2.016-5.544-2.016-2.448 0-4.296.672-5.544 2.016-1.248 1.296-1.872 3.192-1.872 5.688v22.896c0 2.496.624 4.416 1.872 5.76 1.296 1.296 3.144 1.944 5.544 1.944zM360.143 54L346.895 1.44h9.36l7.92 34.2c.72 2.976 1.416 6.36 2.088 10.152.576-3.792 1.2-7.176 1.872-10.152l7.848-34.2h9.072L371.807 54h-11.664zm64.124 0h-30.24v-7.92h10.584V9.36h-10.584V1.44h30.24v7.92h-10.584v36.72h10.584V54zm11.852 0V1.44h15.624c3.504 0 6.576.672 9.216 2.016 2.64 1.344 4.68 3.264 6.12 5.76 1.44 2.496 2.16 5.376 2.16 8.64v19.656c0 3.264-.72 6.144-2.16 8.64-1.44 2.496-3.48 4.44-6.12 5.832-2.64 1.344-5.712 2.016-9.216 2.016h-15.624zm15.624-8.28c2.592 0 4.656-.744 6.192-2.232 1.536-1.488 2.304-3.48 2.304-5.976V17.856c0-2.496-.768-4.464-2.304-5.904-1.536-1.488-3.6-2.232-6.192-2.232h-6.624v36h6.624zM513.635 54h-33.696v-7.92h13.68V9.432l-13.752 10.224v-9.504l12.096-8.712h10.656v44.64h11.016V54zm15.524 0l15.552-24.48-.432-.288c-.96 1.488-2.256 2.616-3.888 3.384-1.632.768-3.456 1.152-5.472 1.152-2.784 0-5.232-.648-7.344-1.944-2.064-1.344-3.672-3.24-4.824-5.688-1.152-2.448-1.728-5.256-1.728-8.424 0-3.36.72-6.312 2.16-8.856 1.488-2.592 3.552-4.584 6.192-5.976 2.688-1.44 5.784-2.16 9.288-2.16 3.504 0 6.576.744 9.216 2.232 2.688 1.44 4.752 3.504 6.191 6.192 1.489 2.64 2.233 5.712 2.233 9.216 0 2.496-.408 5.112-1.225 7.848a31.758 31.758 0 01-3.455 7.704L539.167 54h-10.008zm9.504-27.072c2.64 0 4.776-.84 6.408-2.52 1.632-1.728 2.448-4.008 2.448-6.84 0-2.736-.816-4.944-2.448-6.624-1.632-1.728-3.768-2.592-6.408-2.592-2.64 0-4.776.864-6.408 2.592-1.632 1.68-2.448 3.888-2.448 6.624 0 2.832.816 5.112 2.448 6.84 1.632 1.68 3.768 2.52 6.408 2.52zm50.083-.504c3.264.432 5.904 1.752 7.92 3.96s3.024 5.088 3.024 8.64c0 4.56-1.536 8.208-4.608 10.944C592.058 52.656 587.93 54 582.698 54h-16.92V1.44h16.128c5.088 0 9.12 1.224 12.096 3.672 2.976 2.4 4.464 5.688 4.464 9.864 0 3.024-.912 5.568-2.736 7.632-1.776 2.064-4.104 3.336-6.984 3.816zM574.562 8.928v14.184h7.2c2.352 0 4.224-.624 5.616-1.872 1.392-1.296 2.088-3.048 2.088-5.256s-.696-3.936-2.088-5.184c-1.344-1.248-3.216-1.872-5.616-1.872h-7.2zm7.56 37.584c2.64 0 4.704-.696 6.192-2.088 1.536-1.44 2.304-3.384 2.304-5.832 0-2.496-.768-4.488-2.304-5.976-1.488-1.488-3.552-2.232-6.192-2.232h-7.56v16.128h7.56zM608.878 54V1.44h16.632c3.456 0 6.48.648 9.072 1.944 2.64 1.296 4.656 3.12 6.048 5.472 1.44 2.352 2.16 5.088 2.16 8.208 0 3.456-.864 6.504-2.592 9.144-1.728 2.64-4.104 4.512-7.128 5.616L643.51 54h-10.08l-9.144-20.88h-6.408V54h-9zm16.632-28.728c2.496 0 4.464-.696 5.904-2.088 1.488-1.44 2.232-3.384 2.232-5.832 0-2.496-.744-4.464-2.232-5.904-1.44-1.44-3.408-2.16-5.904-2.16h-7.632v15.984h7.632z" 
    id="#tech4COVID19BR" fill="#fff"/>
</svg>
